HIERARCHY
ROOT Hips
{
	OFFSET -0.001795 -0.223333 0.028219
	CHANNELS 6 Xposition Yposition Zposition Zrotation Yrotation Xrotation 
	JOINT LeftUpLeg
	{
		OFFSET 0.069520 -0.091406 -0.006815
		CHANNELS 3 Zrotation Yrotation Xrotation
		JOINT LeftLeg
		{
			OFFSET 0.034277 -0.375199 -0.004496
			CHANNELS 3 Zrotation Yrotation Xrotation
			JOINT LeftFoot
			{
				OFFSET -0.013596 -0.397961 -0.043693
				CHANNELS 3 Zrotation Yrotation Xrotation
				JOINT LeftToe
				{
					OFFSET 0.026358 -0.055791 0.119288
					CHANNELS 3 Zrotation Yrotation Xrotation
					End Site
					{
						OFFSET 0.000000 0.000000 0.000000
					}
				}
			}
		}
	}
	JOINT RightUpLeg
	{
		OFFSET -0.067670 -0.090522 -0.004320
		CHANNELS 3 Zrotation Yrotation Xrotation
		JOINT RightLeg
		{
			OFFSET -0.038290 -0.382569 -0.008850
			CHANNELS 3 Zrotation Yrotation Xrotation
			JOINT RightFoot
			{
				OFFSET 0.015774 -0.398415 -0.042312
				CHANNELS 3 Zrotation Yrotation Xrotation
				JOINT RightToe
				{
					OFFSET -0.025372 -0.048144 0.123348
					CHANNELS 3 Zrotation Yrotation Xrotation
					End Site
					{
						OFFSET 0.000000 0.000000 0.000000
					}
				}
			}
		}
	}
	JOINT Spine
	{
		OFFSET -0.002533 0.108963 -0.026696
		CHANNELS 3 Zrotation Yrotation Xrotation
		JOINT Spine1
		{
			OFFSET 0.005487 0.135180 0.001092
			CHANNELS 3 Zrotation Yrotation Xrotation
			JOINT Spine2
			{
				OFFSET 0.001457 0.052922 0.025425
				CHANNELS 3 Zrotation Yrotation Xrotation
				JOINT Neck
				{
					OFFSET -0.002778 0.213870 -0.042857
					CHANNELS 3 Zrotation Yrotation Xrotation
					JOINT Head
					{
						OFFSET 0.005152 0.064970 0.051349
						CHANNELS 3 Zrotation Yrotation Xrotation
						End Site
						{
							OFFSET 0.000000 0.000000 0.000000
						}
					}
				}
				JOINT LeftShoulder
				{
					OFFSET 0.078845 0.121749 -0.034090
					CHANNELS 3 Zrotation Yrotation Xrotation
					JOINT LeftArm
					{
						OFFSET 0.090977 0.030469 -0.008868
						CHANNELS 3 Zrotation Yrotation Xrotation
						JOINT LeftForeArm
						{
							OFFSET 0.259612 -0.012772 -0.027456
							CHANNELS 3 Zrotation Yrotation Xrotation
							JOINT LeftHand
							{
								OFFSET 0.249234 0.008986 -0.001171
								CHANNELS 3 Zrotation Yrotation Xrotation
								End Site
								{
									OFFSET 0.000000 0.000000 0.000000
								}
							}
						}
					}
				}
				JOINT RightShoulder
				{
					OFFSET -0.081759 0.118833 -0.038615
					CHANNELS 3 Zrotation Yrotation Xrotation
					JOINT RightArm
					{
						OFFSET -0.096012 0.032551 -0.009143
						CHANNELS 3 Zrotation Yrotation Xrotation
						JOINT RightForeArm
						{
							OFFSET -0.253742 -0.013329 -0.021401
							CHANNELS 3 Zrotation Yrotation Xrotation
							JOINT RightHand
							{
								OFFSET -0.255298 0.007772 -0.005559
								CHANNELS 3 Zrotation Yrotation Xrotation
								End Site
								{
									OFFSET 0.000000 0.000000 0.000000
								}
							}
						}
					}
				}
			}
		}
	}
}
MOTION
Frames: 8
Frame Time: 0.050000
-0.218571 0.951096 -3.540725 1.923813 -5.612627 -7.423425 1.385846 -0.578709 -7.679699 -14.505257 6.927279 38.981867 4.386425 3.498455 -18.130327 0.000000 0.000000 0.000000 1.658587 -0.014035 -0.063326 -0.704884 0.706286 11.478416 -2.603702 -9.320580 7.623109 0.000000 0.000000 0.000000 7.781177 -1.253770 13.705979 -9.110670 2.719584 -26.639639 -2.776341 9.095295 34.157491 12.553383 -5.252670 -26.542275 0.000000 0.000000 0.000000 -5.406858 0.272633 -0.577435 -56.236343 -0.712842 -10.121313 -26.337942 -22.866299 6.564556 0.000000 0.000000 0.000000 1.374123 -13.299541 -5.087667 33.405085 14.543324 -1.920231 122.265224 46.850266 85.604673 0.000000 0.000000 0.000000 
-0.217672 0.952599 -3.575230 1.796489 -4.477579 -6.846480 -1.557737 -0.083835 -0.655318 -12.455813 5.370170 37.075944 5.281620 10.079721 -5.473323 0.000000 0.000000 0.000000 1.529402 0.290076 -2.792177 0.086086 0.518746 11.292103 -2.808637 -10.224756 9.614075 0.000000 0.000000 0.000000 8.629985 -1.293166 12.938669 -9.946142 2.958487 -26.039276 -2.790185 7.978779 33.836242 13.432019 -5.750961 -27.044119 0.000000 0.000000 0.000000 -5.006578 -1.717024 0.259966 -56.208859 -0.324110 -10.214943 -28.431076 -25.424032 7.858384 0.000000 0.000000 0.000000 1.017340 -15.633002 -5.980952 29.592663 12.722867 -2.218033 125.487074 45.218482 86.365818 0.000000 0.000000 0.000000 
-0.217390 0.951144 -3.611609 0.781269 -2.259143 -5.746476 -2.752427 0.679941 5.800837 -9.890472 3.228198 31.738687 5.166796 13.521971 17.292624 0.000000 0.000000 0.000000 1.972464 0.657079 -5.826884 1.402375 0.185218 10.591699 -3.639051 -12.051147 11.737968 0.000000 0.000000 0.000000 10.123270 -1.327934 11.346322 -9.124622 2.777124 -25.805584 -5.471439 6.532755 34.288965 14.944452 -6.867990 -26.621301 0.000000 0.000000 0.000000 -3.302133 -0.508892 -0.074231 -56.833079 -0.854543 -10.146336 -30.012002 -27.408440 8.972634 0.000000 0.000000 0.000000 0.481161 -15.100887 -5.733138 27.390727 10.554820 -2.566558 125.683133 44.610514 85.213847 0.000000 0.000000 0.000000 
-0.217666 0.949566 -3.651431 -0.108242 0.750894 -5.239364 -3.113183 1.323664 11.267145 -7.245399 1.474601 24.155695 5.185486 14.569096 23.595619 0.000000 0.000000 0.000000 1.773779 1.007646 -8.851234 2.887014 -0.180326 10.390798 -4.532151 -13.766503 14.939864 0.000000 0.000000 0.000000 11.187418 -1.441758 10.920861 -10.080471 3.105638 -24.695315 -5.640397 4.197117 33.726858 15.631215 -6.987944 -28.071748 0.000000 0.000000 0.000000 -4.268977 -2.857043 0.759575 -54.655528 -2.368364 -8.981645 -32.254098 -32.045682 11.232326 0.000000 0.000000 0.000000 0.285337 -16.762783 -6.381527 25.022675 6.479444 -3.020025 125.101854 42.452263 80.457587 0.000000 0.000000 0.000000 
-0.218078 0.946560 -3.695127 -0.096277 1.662020 -5.074076 -3.628745 1.582673 13.148852 -6.676114 1.129203 19.679863 6.348178 16.154191 24.178651 0.000000 0.000000 0.000000 1.274171 1.344056 -12.251971 3.104254 -0.244477 10.532540 -4.648956 -14.230382 18.596837 0.000000 0.000000 0.000000 10.468493 -1.491563 11.596767 -9.938196 3.076261 -24.744758 -6.108153 3.264555 33.585657 17.065627 -7.951748 -27.997827 0.000000 0.000000 0.000000 -2.800112 -3.712118 1.165645 -54.020728 -4.670383 -7.836472 -34.132847 -34.525293 12.826843 0.000000 0.000000 0.000000 0.596749 -18.207599 -7.003914 23.636556 4.447587 -3.140287 119.446100 42.426475 72.750695 0.000000 0.000000 0.000000 
-0.218612 0.943535 -3.740958 -0.233610 2.792453 -5.009706 -4.435060 1.811522 14.491782 -5.285325 0.662001 15.354067 7.279056 16.886444 17.659778 0.000000 0.000000 0.000000 0.870015 1.534059 -14.579218 2.865002 -0.235401 8.662122 -4.326907 -14.011193 23.399447 0.000000 0.000000 0.000000 10.335195 -1.425931 11.061777 -10.261357 3.385777 -21.897780 -5.948330 2.189972 31.935192 17.121721 -8.000751 -27.684438 0.000000 0.000000 0.000000 -1.659356 -5.462376 1.824592 -53.408302 -6.604536 -6.706544 -33.472807 -37.687091 13.774147 0.000000 0.000000 0.000000 0.914092 -18.921649 -7.320195 23.943387 1.185241 -3.524760 113.299160 42.018053 65.155588 0.000000 0.000000 0.000000 
-0.219817 0.939892 -3.786254 -0.127135 3.551848 -5.436001 -4.992927 1.967751 15.400207 -3.349126 0.237730 10.955725 5.503059 13.517758 10.927369 0.000000 0.000000 0.000000 0.294589 1.615642 -16.300564 1.892313 -0.086161 7.037223 -2.434197 -11.709410 27.892073 0.000000 0.000000 0.000000 9.416503 -1.389933 11.476518 -9.592457 3.222981 -22.015459 -6.256946 1.040260 32.406799 16.797124 -8.033312 -27.500490 0.000000 0.000000 0.000000 -3.161299 -6.076647 2.051939 -50.589643 -7.851759 -5.885602 -34.205172 -40.376597 15.179333 0.000000 0.000000 0.000000 1.840960 -18.235776 -7.196252 23.120687 -1.303257 -3.769458 110.350763 41.528732 60.671070 0.000000 0.000000 0.000000 
-0.222239 0.936096 -3.829898 -0.483647 5.181769 -6.621464 -4.576541 1.871526 15.730128 -1.966630 0.022489 7.734152 4.263507 10.805014 7.255206 0.000000 0.000000 0.000000 0.063836 1.635391 -17.267803 1.544957 -0.076240 5.197197 -2.785182 -12.289039 31.648579 0.000000 0.000000 0.000000 8.712040 -1.415662 12.235556 -9.594750 3.352884 -20.789567 -6.785672 -0.660978 32.395047 17.073429 -8.103970 -28.395293 0.000000 0.000000 0.000000 -3.378625 -7.013676 2.413512 -49.419103 -9.686701 -4.975453 -30.473471 -42.457915 14.468320 0.000000 0.000000 0.000000 2.352149 -18.231002 -7.271047 24.587921 -4.908397 -4.479498 106.977536 38.832264 53.529027 0.000000 0.000000 0.000000 
